<?xml version="1.0" encoding="UTF-8"?><svg id="_Слой_2" xmlns="http://www.w3.org/2000/svg" width="107.2" height="27.57" viewBox="0 0 107.2 27.57"><defs><style>.cls-1{fill:#737680;stroke-width:0px;}</style></defs><g id="_Слой_1-2"><g id="adoratorio"><path class="cls-1" d="M27.79,9.22c0-1.86-.56-3.67-1.62-5.21-1.05-1.53-2.55-2.71-4.29-3.39-1.74-.67-3.64-.81-5.46-.39-1.82.42-3.46,1.38-4.73,2.75H0v24.58h24.7v-11.49c.97-.86,1.75-1.92,2.28-3.1.53-1.18.81-2.46.81-3.76ZM23.03,9.22c0,.89-.26,1.76-.76,2.5-.5.74-1.2,1.32-2.03,1.66-.83.34-1.73.43-2.61.26-.88-.17-1.68-.6-2.32-1.23-.63-.63-1.06-1.43-1.24-2.3-.18-.87-.09-1.78.26-2.6.34-.82.92-1.53,1.66-2.02.74-.49,1.62-.76,2.51-.76,1.2,0,2.34.47,3.19,1.31.85.84,1.32,1.98,1.33,3.18ZM19.95,22.84H4.75V7.72h4.63c-.09.5-.14,1-.14,1.5,0,2.45.98,4.79,2.72,6.52,1.74,1.73,4.1,2.7,6.55,2.71.48,0,.96-.04,1.43-.12v4.51Z"/><path class="cls-1" d="M40.55,18.04l-.63-1.89h-4.19l-.63,1.89h-2.23l3.68-10.5h2.56l3.69,10.5h-2.25ZM36.4,14.22h2.88l-1.44-4.29-1.44,4.29Z"/><path class="cls-1" d="M49.21,7.54h1.94v10.5h-1.94v-.88c-.57.73-1.38,1.09-2.43,1.09s-1.87-.38-2.59-1.15c-.72-.77-1.07-1.7-1.07-2.81s.36-2.05,1.07-2.81c.71-.77,1.58-1.15,2.59-1.15s1.86.37,2.43,1.09v-3.88ZM45.65,15.82c.4.39.89.59,1.49.59s1.1-.2,1.48-.59c.39-.4.58-.9.58-1.52s-.19-1.13-.58-1.52c-.39-.4-.88-.59-1.48-.59s-1.1.2-1.49.59-.59.9-.59,1.52.2,1.13.59,1.52Z"/><path class="cls-1" d="M59.3,17.11c-.77.76-1.71,1.15-2.82,1.15s-2.05-.38-2.81-1.15c-.77-.77-1.15-1.7-1.15-2.81s.38-2.05,1.15-2.81,1.7-1.15,2.81-1.15,2.05.38,2.82,1.15c.77.77,1.15,1.7,1.15,2.81s-.38,2.05-1.15,2.81ZM55.04,15.78c.39.39.87.58,1.45.58s1.06-.19,1.46-.58c.39-.39.59-.88.59-1.48s-.2-1.1-.59-1.48c-.39-.39-.88-.58-1.46-.58s-1.06.19-1.45.58c-.38.39-.58.88-.58,1.48s.19,1.09.58,1.48Z"/><path class="cls-1" d="M63.76,11.83c.18-.48.48-.84.89-1.08.41-.24.88-.36,1.39-.36v2.16c-.59-.07-1.12.05-1.58.36s-.7.82-.7,1.54v3.58h-1.94v-7.5h1.94v1.29Z"/><path class="cls-1" d="M72.58,10.54h1.93v7.5h-1.93v-.88c-.58.73-1.39,1.09-2.45,1.09s-1.86-.38-2.57-1.15c-.71-.77-1.07-1.7-1.07-2.81s.36-2.05,1.07-2.81,1.57-1.15,2.57-1.15c1.05,0,1.87.37,2.45,1.09v-.88ZM69.01,15.82c.39.39.89.59,1.49.59s1.1-.2,1.49-.59.59-.9.59-1.52-.2-1.13-.59-1.52c-.39-.4-.89-.59-1.49-.59s-1.09.2-1.49.59c-.39.4-.58.9-.58,1.52s.2,1.13.58,1.52Z"/><path class="cls-1" d="M80.56,12.4h-1.69v3.12c0,.26.06.45.19.57s.32.19.57.2c.25.02.56.01.93,0v1.75c-1.33.15-2.27.02-2.81-.38-.54-.4-.82-1.12-.82-2.15v-3.12h-1.3v-1.86h1.3v-1.52l1.94-.58v2.1h1.69v1.86Z"/><path class="cls-1" d="M88.09,17.11c-.77.76-1.71,1.15-2.82,1.15s-2.05-.38-2.81-1.15c-.76-.77-1.15-1.7-1.15-2.81s.38-2.05,1.15-2.81,1.7-1.15,2.81-1.15,2.05.38,2.82,1.15c.77.77,1.15,1.7,1.15,2.81s-.38,2.05-1.15,2.81ZM83.82,15.78c.38.39.87.58,1.45.58s1.06-.19,1.46-.58.58-.88.58-1.48-.2-1.1-.58-1.48c-.39-.39-.88-.58-1.46-.58s-1.06.19-1.45.58c-.39.39-.58.88-.58,1.48s.19,1.09.58,1.48Z"/><path class="cls-1" d="M92.55,11.83c.18-.48.48-.84.89-1.08.41-.24.88-.36,1.39-.36v2.16c-.59-.07-1.12.05-1.58.36s-.7.82-.7,1.54v3.58h-1.94v-7.5h1.94v1.29Z"/><path class="cls-1" d="M96.91,9.64c-.32,0-.6-.12-.83-.35-.24-.23-.35-.51-.35-.83s.12-.6.35-.84c.23-.24.51-.36.83-.36s.61.12.85.36c.24.24.35.52.35.84s-.12.6-.35.83-.52.35-.85.35ZM95.95,18.04v-7.5h1.94v7.5h-1.94Z"/><path class="cls-1" d="M106.04,17.11c-.77.76-1.71,1.15-2.82,1.15s-2.05-.38-2.81-1.15c-.76-.77-1.15-1.7-1.15-2.81s.38-2.05,1.15-2.81,1.7-1.15,2.81-1.15,2.05.38,2.82,1.15c.77.77,1.15,1.7,1.15,2.81s-.38,2.05-1.15,2.81ZM101.78,15.78c.38.39.87.58,1.45.58s1.06-.19,1.46-.58.58-.88.58-1.48-.2-1.1-.58-1.48c-.39-.39-.88-.58-1.46-.58s-1.06.19-1.45.58c-.39.39-.58.88-.58,1.48s.19,1.09.58,1.48Z"/></g></g></svg>