<?xml version="1.0" encoding="UTF-8"?><svg id="_Слой_2" xmlns="http://www.w3.org/2000/svg" width="118.07" height="28" viewBox="0 0 118.07 28"><defs><style>.cls-1{fill:#737680;stroke-width:0px;}</style></defs><g id="_Слой_1-2"><g id="epic_agency"><path class="cls-1" d="M21.11,12.29c-.39.4-.69.88-.88,1.42-.19.53-.26,1.1-.2,1.66l-.02-.02c.06.66-.03,1.33-.26,1.95-.23.62-.58,1.19-1.05,1.66-.46.47-1.02.83-1.64,1.06-.62.23-1.27.32-1.93.26l.02.02c-.78-.07-1.57.1-2.25.49-.68.39-1.23.99-1.56,1.71-.33.72-.44,1.52-.3,2.31.14.78.51,1.5,1.06,2.07.56.56,1.27.94,2.04,1.07.77.14,1.57.03,2.28-.31.71-.34,1.3-.89,1.69-1.58s.56-1.48.49-2.28l.02.02c-.06-.66.03-1.33.26-1.95.23-.62.58-1.19,1.05-1.66.46-.47,1.02-.83,1.64-1.06.62-.23,1.27-.32,1.93-.26l-.02-.02c.64.06,1.28-.05,1.87-.31.59-.26,1.1-.67,1.49-1.18.39-.51.65-1.12.75-1.76.1-.64.03-1.3-.18-1.91-.22-.61-.59-1.15-1.07-1.58-.48-.43-1.06-.73-1.69-.87-.63-.14-1.28-.12-1.89.06-.62.18-1.18.52-1.63.98h0Z"/><path class="cls-1" d="M13.46,17.82l-.02-.02c.56.06,1.12-.01,1.64-.2.53-.19,1-.5,1.4-.89.39-.4.7-.88.89-1.41.19-.53.26-1.1.2-1.66l.02.02c-.06-.66.03-1.33.26-1.95.23-.62.58-1.19,1.05-1.66.46-.47,1.02-.83,1.64-1.06.62-.23,1.27-.32,1.93-.26l-.02-.02c.78.07,1.57-.1,2.25-.49.68-.39,1.23-.99,1.56-1.71.33-.72.44-1.52.31-2.31-.14-.78-.51-1.5-1.06-2.07-.56-.56-1.27-.94-2.04-1.07-.77-.14-1.57-.03-2.28.31-.71.34-1.3.89-1.69,1.58-.39.69-.56,1.48-.49,2.28l-.02-.02c.06.66-.03,1.33-.26,1.95-.23.62-.58,1.19-1.05,1.66-.46.47-1.02.83-1.64,1.06-.62.23-1.27.32-1.93.26l.02.02c-.56-.06-1.12.01-1.64.2-.53.19-1,.5-1.4.89-.39.4-.7.88-.88,1.41-.19.53-.26,1.1-.2,1.66l-.02-.02c.05.66-.03,1.33-.26,1.95-.23.62-.58,1.19-1.05,1.66-.46.47-1.02.83-1.64,1.06-.62.23-1.27.32-1.93.26l.02.02c-.78-.07-1.57.1-2.25.49-.68.39-1.23.99-1.56,1.71-.33.72-.44,1.52-.31,2.31.14.78.51,1.5,1.06,2.07.56.56,1.27.94,2.04,1.07.77.14,1.57.03,2.28-.31.71-.34,1.3-.89,1.69-1.58.39-.69.56-1.48.49-2.28l.02.02c-.06-.66.03-1.33.26-1.95.23-.62.58-1.19,1.05-1.66.46-.47,1.02-.83,1.64-1.06.62-.23,1.27-.32,1.93-.26Z"/><path class="cls-1" d="M6.51,15.71c.39-.4.69-.88.88-1.42.19-.53.26-1.1.2-1.66l.02.02c-.06-.66.03-1.33.26-1.95.23-.62.58-1.19,1.05-1.66.46-.47,1.02-.83,1.64-1.06.62-.23,1.27-.32,1.93-.26l-.02-.02c.78.07,1.57-.1,2.25-.49.68-.39,1.23-.99,1.56-1.71.33-.72.44-1.52.31-2.31-.13-.78-.51-1.5-1.06-2.07-.56-.56-1.27-.94-2.04-1.07-.77-.14-1.57-.03-2.28.31-.71.34-1.3.89-1.69,1.58-.39.69-.56,1.48-.49,2.27l-.02-.02c.06.66-.03,1.33-.26,1.95-.23.62-.58,1.19-1.05,1.66-.46.47-1.02.83-1.64,1.06-.62.23-1.27.32-1.93.26l.02.02c-.64-.06-1.28.05-1.87.31-.59.26-1.1.67-1.49,1.18-.39.51-.65,1.12-.75,1.76-.1.64-.03,1.3.18,1.91.22.61.59,1.15,1.07,1.58.48.43,1.06.73,1.69.86.63.14,1.28.12,1.89-.06.62-.18,1.18-.52,1.63-.98h0Z"/><path class="cls-1" d="M35.82,16.28h4.43v1.98h-6.5V7.76h6.42v1.98h-4.35v2.23h3.98v1.95h-3.98v2.35Z"/><path class="cls-1" d="M45.98,10.55c1.01,0,1.87.38,2.59,1.15s1.07,1.7,1.07,2.81-.36,2.05-1.07,2.81c-.71.76-1.58,1.15-2.59,1.15s-1.86-.37-2.43-1.09v3.88h-1.94v-10.5h1.94v.88c.57-.73,1.38-1.09,2.43-1.09ZM44.13,16.03c.39.39.89.59,1.49.59s1.1-.2,1.49-.59c.4-.4.59-.9.59-1.52s-.2-1.13-.59-1.52-.89-.59-1.49-.59-1.1.2-1.49.59c-.39.4-.58.9-.58,1.52s.2,1.13.58,1.52Z"/><path class="cls-1" d="M51.97,9.86c-.32,0-.6-.12-.83-.35-.24-.23-.35-.51-.35-.83s.12-.6.35-.84c.23-.24.51-.36.83-.36s.61.12.85.36c.23.24.35.52.35.84s-.12.6-.35.83-.52.35-.85.35ZM51,18.26v-7.5h1.94v7.5h-1.94Z"/><path class="cls-1" d="M58.28,18.47c-1.13,0-2.07-.38-2.83-1.14-.75-.76-1.13-1.7-1.13-2.82s.38-2.06,1.13-2.82c.75-.76,1.7-1.14,2.83-1.14.73,0,1.39.17,1.99.52s1.05.82,1.37,1.41l-1.66.98c-.15-.31-.38-.56-.68-.74-.3-.18-.65-.27-1.03-.27-.58,0-1.06.19-1.44.58-.38.39-.57.88-.57,1.48s.19,1.08.57,1.46c.38.39.86.58,1.44.58.39,0,.74-.09,1.04-.26s.53-.42.68-.73l1.68.96c-.33.59-.79,1.06-1.39,1.42-.6.35-1.27.53-1.99.53Z"/><path class="cls-1" d="M73.34,18.26l-.63-1.89h-4.18l-.63,1.89h-2.24l3.67-10.5h2.57l3.69,10.5h-2.25ZM69.18,14.43h2.88l-1.44-4.29-1.44,4.29Z"/><path class="cls-1" d="M82.05,10.76h1.89v7.14c0,1.16-.38,2.04-1.15,2.66-.76.61-1.69.92-2.77.92-.81,0-1.52-.16-2.14-.46-.62-.31-1.09-.76-1.42-1.37l1.65-.95c.38.7,1.04,1.05,1.96,1.05.61,0,1.09-.16,1.44-.48.35-.32.52-.78.52-1.37v-.81c-.57.76-1.37,1.14-2.4,1.14s-1.95-.37-2.66-1.12-1.07-1.65-1.07-2.72.36-1.96,1.08-2.71,1.6-1.12,2.66-1.12,1.83.38,2.4,1.14v-.93ZM78.45,15.86c.39.38.9.58,1.51.58s1.11-.19,1.51-.58c.4-.38.59-.88.59-1.48s-.2-1.08-.59-1.46c-.39-.38-.9-.58-1.51-.58s-1.11.19-1.51.58c-.4.39-.59.87-.59,1.46s.2,1.09.59,1.48Z"/><path class="cls-1" d="M87.33,15.3c.26.94.97,1.41,2.12,1.41.74,0,1.3-.25,1.68-.75l1.56.9c-.74,1.07-1.83,1.61-3.27,1.61-1.24,0-2.24-.38-2.99-1.12s-1.12-1.7-1.12-2.83.37-2.07,1.11-2.83c.74-.75,1.69-1.13,2.85-1.13,1.1,0,2.01.38,2.72,1.14.71.76,1.07,1.7,1.07,2.82,0,.25-.03.51-.08.79h-5.66ZM87.3,13.8h3.83c-.11-.51-.34-.89-.68-1.14-.35-.25-.74-.38-1.18-.38-.52,0-.95.13-1.29.4-.34.26-.57.64-.67,1.12Z"/><path class="cls-1" d="M98.58,10.55c.82,0,1.5.27,2.03.83.53.55.8,1.31.8,2.28v4.6h-1.93v-4.37c0-.5-.13-.88-.41-1.15-.27-.26-.63-.4-1.08-.4-.5,0-.9.16-1.2.47-.3.31-.45.77-.45,1.4v4.05h-1.94v-7.5h1.94v.84c.47-.7,1.21-1.05,2.23-1.05Z"/><path class="cls-1" d="M106.64,18.47c-1.13,0-2.07-.38-2.83-1.14-.76-.76-1.13-1.7-1.13-2.82s.38-2.06,1.13-2.82c.75-.76,1.7-1.14,2.83-1.14.73,0,1.39.17,2,.52.6.35,1.05.82,1.37,1.41l-1.67.98c-.15-.31-.38-.56-.68-.74-.31-.18-.65-.27-1.03-.27-.58,0-1.06.19-1.44.58-.38.39-.57.88-.57,1.48s.19,1.08.57,1.46c.38.39.86.58,1.44.58.39,0,.74-.09,1.04-.26s.53-.42.68-.73l1.68.96c-.33.59-.79,1.06-1.39,1.42-.6.35-1.27.53-2,.53Z"/><path class="cls-1" d="M116,10.76h2.07l-2.73,7.5c-.39,1.08-.91,1.86-1.55,2.35-.64.48-1.45.7-2.41.65v-1.8c.52,0,.93-.1,1.24-.33.3-.23.55-.6.73-1.11l-3.08-7.26h2.12l1.95,5.04,1.67-5.04Z"/></g></g></svg>