<?xml version="1.0" encoding="UTF-8"?><svg id="_Слой_2" xmlns="http://www.w3.org/2000/svg" width="109.69" height="27.12" viewBox="0 0 109.69 27.12"><defs><style>.cls-1{fill:#737680;stroke-width:0px;}</style></defs><g id="_Слой_1-2"><g id="webstudio"><path class="cls-1" d="M26.01,8.19c-.51-1.16-1.18-2.25-2-3.22-1.21-1.48-2.72-2.69-4.43-3.54C17.87.57,16,.09,14.1.01c-1.91-.08-3.81.25-5.59.95-1.77.71-3.38,1.79-4.71,3.16-1.33,1.37-2.35,3.01-3,4.81C.16,10.73-.11,12.65.04,14.55c.14,1.91.69,3.76,1.6,5.44.91,1.68,2.17,3.15,3.69,4.3.97.76,2.05,1.37,3.2,1.83,1.61.66,3.33,1,5.07,1,3.59,0,7.03-1.44,9.57-3.98,2.54-2.54,3.96-5.98,3.96-9.57,0-1.85-.38-3.68-1.12-5.38ZM13.59,2.76c1.56,0,3.1.34,4.52,1-.35.15-.71.25-1.08.31-1.22.18-2.36.75-3.23,1.62-.87.87-1.44,2.01-1.62,3.23-.08.69-.39,1.32-.88,1.81-.49.48-1.14.78-1.83.84-1.22.18-2.36.75-3.23,1.62-.87.87-1.44,2.01-1.62,3.23-.06.65-.34,1.27-.79,1.74-.78-1.65-1.13-3.46-1.02-5.28.11-1.82.68-3.58,1.66-5.12.98-1.54,2.32-2.81,3.92-3.68,1.6-.88,3.39-1.34,5.21-1.34v.02ZM5.32,20.57c.12-.11.24-.21.36-.33.89-.86,1.46-2,1.62-3.23.06-.69.37-1.34.87-1.82.48-.5,1.12-.8,1.81-.86,1.22-.18,2.36-.75,3.23-1.62.87-.87,1.44-2.01,1.62-3.23.04-.72.35-1.4.87-1.91.49-.49,1.14-.78,1.83-.83,1.12-.15,2.17-.65,3-1.43.94.78,1.74,1.72,2.36,2.78-.04.05-.08.1-.13.14-.48.5-1.12.81-1.81.88-1.22.17-2.36.74-3.23,1.62-.87.87-1.44,2.01-1.62,3.23-.07.69-.38,1.33-.87,1.82-.49.49-1.13.79-1.82.86-1.23.18-2.36.74-3.24,1.62-.88.87-1.45,2.01-1.64,3.23-.05.49-.22.96-.49,1.37-1.03-.61-1.94-1.38-2.72-2.29ZM13.59,24.43c-1.01,0-2.02-.14-3-.42.33-.62.55-1.3.64-2,.07-.69.37-1.33.86-1.82.49-.49,1.13-.79,1.82-.86,1.23-.18,2.36-.74,3.24-1.62.88-.87,1.45-2.01,1.62-3.23.07-.69.37-1.33.86-1.82.49-.49,1.13-.79,1.82-.86.92-.12,1.8-.46,2.56-1,.42,1.6.47,3.27.15,4.89-.33,1.62-1.02,3.14-2.02,4.46s-2.3,2.37-3.78,3.11c-1.48.73-3.11,1.12-4.76,1.13v.05Z"/><path class="cls-1" d="M36.19,17.83l-2.94-10.5h2.17l2.01,7.79,2.19-7.79h1.77l2.21,7.79,2.01-7.79h2.17l-2.94,10.5h-2.35l-1.98-6.93-1.96,6.93h-2.35Z"/><path class="cls-1" d="M49.63,14.87c.26.94.96,1.41,2.11,1.41.74,0,1.3-.25,1.68-.75l1.56.9c-.74,1.07-1.83,1.61-3.27,1.61-1.24,0-2.23-.38-2.98-1.12s-1.12-1.7-1.12-2.83.37-2.07,1.11-2.83c.74-.75,1.69-1.13,2.85-1.13,1.1,0,2.01.38,2.72,1.14.71.76,1.07,1.7,1.07,2.82,0,.25-.02.51-.08.79h-5.65ZM49.6,13.37h3.82c-.11-.51-.34-.89-.68-1.14-.34-.25-.74-.38-1.18-.38-.52,0-.95.13-1.29.4-.34.26-.56.64-.67,1.12Z"/><path class="cls-1" d="M61.08,10.12c1.01,0,1.87.38,2.59,1.15s1.07,1.7,1.07,2.81-.36,2.05-1.07,2.81c-.71.76-1.58,1.15-2.59,1.15s-1.86-.37-2.43-1.09v.88h-1.94V7.33h1.94v3.88c.57-.73,1.38-1.09,2.43-1.09ZM59.23,15.6c.39.39.88.59,1.48.59s1.1-.2,1.49-.59c.39-.4.59-.9.59-1.52s-.2-1.13-.59-1.52-.89-.59-1.49-.59-1.1.2-1.48.59c-.39.4-.59.9-.59,1.52s.2,1.13.59,1.52Z"/><path class="cls-1" d="M69.78,18.04c-1.04,0-1.92-.23-2.62-.7-.71-.47-1.21-1.1-1.5-1.9l1.77-1.04c.41,1.07,1.21,1.6,2.42,1.6.58,0,1-.1,1.27-.31.27-.21.41-.48.41-.79,0-.37-.17-.66-.5-.86-.33-.2-.92-.43-1.77-.67-.47-.14-.87-.28-1.19-.42-.33-.14-.65-.33-.98-.56s-.57-.53-.74-.89-.25-.78-.25-1.26c0-.95.34-1.71,1.01-2.27.67-.56,1.49-.85,2.44-.85.85,0,1.6.21,2.24.62s1.15.99,1.51,1.73l-1.74,1c-.42-.9-1.09-1.35-2.01-1.35-.43,0-.77.1-1.01.29-.25.2-.37.45-.37.76,0,.33.14.6.41.8.27.21.8.43,1.58.67.32.1.56.18.73.23.17.05.39.14.68.25.28.11.5.22.66.32.16.1.33.24.53.41.2.17.35.34.46.52.11.18.2.4.27.65.07.25.11.53.11.83,0,.97-.35,1.74-1.06,2.31-.71.57-1.62.86-2.75.86Z"/><path class="cls-1" d="M78.91,12.19h-1.69v3.12c0,.26.06.45.19.57s.32.19.57.2c.25.02.56.01.93,0v1.75c-1.33.15-2.27.02-2.81-.38-.54-.4-.82-1.12-.82-2.15v-3.12h-1.3v-1.86h1.3v-1.52l1.94-.58v2.1h1.69v1.86Z"/><path class="cls-1" d="M85.35,10.33h1.93v7.5h-1.93v-.84c-.47.7-1.21,1.05-2.24,1.05-.82,0-1.5-.28-2.03-.83s-.8-1.31-.8-2.28v-4.6h1.94v4.37c0,.5.13.88.41,1.15.27.26.63.4,1.08.4.5,0,.9-.16,1.2-.47.3-.31.45-.77.45-1.39v-4.05Z"/><path class="cls-1" d="M94.74,7.33h1.93v10.5h-1.93v-.88c-.57.73-1.38,1.09-2.43,1.09s-1.87-.38-2.59-1.15c-.71-.77-1.07-1.7-1.07-2.81s.36-2.05,1.07-2.81,1.58-1.15,2.59-1.15,1.86.37,2.43,1.09v-3.88ZM91.17,15.6c.39.39.89.59,1.49.59s1.09-.2,1.49-.59c.39-.4.58-.9.58-1.52s-.2-1.13-.58-1.52c-.39-.4-.89-.59-1.49-.59s-1.1.2-1.49.59c-.4.4-.59.9-.59,1.52s.2,1.13.59,1.52Z"/><path class="cls-1" d="M99.4,9.43c-.32,0-.6-.12-.83-.35-.24-.23-.35-.51-.35-.83s.12-.6.35-.84c.23-.24.51-.36.83-.36s.61.12.85.36c.24.24.35.52.35.84s-.12.6-.35.83-.52.35-.85.35ZM98.44,17.83v-7.5h1.94v7.5h-1.94Z"/><path class="cls-1" d="M108.54,16.89c-.77.76-1.71,1.15-2.82,1.15s-2.05-.38-2.81-1.15c-.76-.77-1.15-1.7-1.15-2.81s.38-2.05,1.15-2.81,1.7-1.15,2.81-1.15,2.05.38,2.82,1.15c.77.77,1.15,1.7,1.15,2.81s-.38,2.05-1.15,2.81ZM104.27,15.56c.38.39.87.58,1.45.58s1.06-.19,1.46-.58.58-.88.58-1.48-.2-1.1-.58-1.48c-.39-.39-.88-.58-1.46-.58s-1.06.19-1.45.58c-.39.39-.58.88-.58,1.48s.19,1.09.58,1.48Z"/></g></g></svg>