<?xml version="1.0" encoding="UTF-8"?><svg id="_Слой_2" xmlns="http://www.w3.org/2000/svg" width="144" height="32" viewBox="0 0 144 32"><g id="_Слой_1-2"><g id="logoheader"><g id="sonic"><path d="M23.43,15.06c-.91-.7-1.85-1.3-2.81-1.78-.96-.49-2.13-.97-3.54-1.46-1.49-.54-2.55-1-3.16-1.36-.62-.38-.93-.79-.93-1.25,0-.83.76-1.24,2.28-1.24,3.29,0,6.53,1.56,9.74,4.67l3.46-7.85c-1.49-1.62-3.47-2.83-5.95-3.62-2.47-.78-4.93-1.17-7.38-1.17-3.74,0-6.7.96-8.88,2.89-2.18,1.92-3.27,4.68-3.27,8.25,0,.97.17,1.85.51,2.65.34.81.72,1.45,1.14,1.95s1.04,1,1.88,1.48c.82.49,1.5.84,2.04,1.07.53.23,1.3.55,2.32.95,2.08.76,3.47,1.36,4.17,1.79.71.43,1.06.89,1.06,1.38,0,.91-.9,1.37-2.7,1.37-2,0-3.94-.48-5.84-1.44-1.9-.96-3.49-2.27-4.79-3.92L0,27.38c3.34,3.08,7.78,4.62,13.33,4.62,4.53,0,7.8-.96,9.82-2.87,2.03-1.92,3.04-4.67,3.04-8.27,0-1.22-.23-2.33-.69-3.3-.47-.96-1.16-1.8-2.07-2.5Z" style="fill:#026aa2; stroke-width:0px;"/><path d="M57.93,3.98c-2.99-2.65-6.82-3.98-11.49-3.98-5.15,0-9.3,1.64-12.46,4.93-.69.71-1.3,1.46-1.83,2.25-.12.19-.25.37-.35.56,0,.01,0,.02-.02.03-1.71,2.75-2.55,5.99-2.55,9.72,0,.16,0,.32,0,.47,0,.09.01.18.01.27,0,.05.01.1.01.15.01.13.01.26.02.38,0,.05.01.11.01.16,0,.13.02.24.04.36.02.28.06.55.11.83.02.11.03.21.06.31,0,.03,0,.05.01.07.14.76.33,1.48.59,2.17.02.07.04.13.07.2.13.36.28.7.44,1.04.05.1.1.22.16.32.01.03.03.06.04.09.06.1.12.21.18.32.71,1.22,1.62,2.34,2.74,3.35,2.99,2.68,6.8,4.02,11.44,4.02,5.21,0,9.38-1.64,12.53-4.95,3.15-3.29,4.73-7.48,4.73-12.57,0-4.34-1.5-7.84-4.5-10.5Z" style="fill:#026aa2; stroke-width:0px;"/><path d="M88.16.72l-2.79,14.27h-.75s-7.45-14.27-7.45-14.27h-8.37l-5.87,30.55h9.57l2.7-14.31h.75l7,14.31h8.88L97.73.72h-9.57Z" style="fill:#026aa2; stroke-width:0px;"/><path d="M102.2.72l-5.81,30.55h9.91L112.11.72h-9.91Z" style="fill:#026aa2; stroke-width:0px;"/><path d="M132.22,22.45c-.94.48-1.94.72-2.98.72-1.8,0-3.28-.52-4.43-1.56-1.15-1.04-1.73-2.51-1.73-4.39,0-2.43.62-4.42,1.88-5.98,1.25-1.55,3-2.34,5.25-2.34,1.3,0,2.46.34,3.51.99,1.03.67,1.82,1.5,2.36,2.53l7.92-5.66c-1.32-2.28-3.24-3.98-5.77-5.09-2.54-1.12-5.31-1.67-8.31-1.67-5.15,0-9.26,1.66-12.32,4.99-3.07,3.32-4.6,7.65-4.6,12.96,0,4.4,1.44,7.84,4.33,10.32,2.88,2.48,6.72,3.73,11.53,3.73s8.92-1.65,12.03-4.97l-6.42-6.51c-.56.8-1.32,1.44-2.25,1.93Z" style="fill:#026aa2; stroke-width:0px;"/></g><g id="car"><path d="M40.89,8.25v9.22c0,.28-.23.51-.51.51h-10.99s-.1-.01-.15-.02c0-.15,0-.31,0-.47,0-3.73.84-6.97,2.55-9.72.01-.01.01-.02.02-.03h8.58c.28,0,.51.23.51.51Z" style="fill:#fff; stroke-width:0px;"/><path d="M55.75,15.86c-1.3-.1-3.84-.32-5.07-.42-.4-.03-.7-.36-.7-.76v-2.35c0-.37-.3-.67-.67-.66h-.51c-.33,0-.63-.18-.76-.48-.48-1.02-1.88-3.32-4.93-3.45h-.8c-.4,0-.72.33-.72.73v10.05h-2.86s-.09.04-.09.09v.03s.01.04.02.06c.41.49,1.15.65,1.45,2.67h8.51s.06-3.39,3.74-3.39c2.85,0,3.2,3.23,3.2,3.23,0,0,.79.57.89-.25.07-.61.1-3.26.1-4.52,0-.46-.35-.54-.8-.58ZM49.21,15.32h-2.62s-.16-.67-.16-1.44.16-1.23.16-1.23h2.62v2.67Z" style="fill:#fff; stroke-width:0px;"/><path d="M52.09,18.52c-1.58,0-2.86,1.28-2.86,2.86s1.28,2.86,2.86,2.86,2.86-1.28,2.86-2.86-1.28-2.86-2.86-2.86ZM52.09,22.71c-.73,0-1.33-.6-1.33-1.33s.6-1.33,1.33-1.33,1.33.6,1.33,1.33-.6,1.33-1.33,1.33Z" style="fill:#fff; stroke-width:0px;"/><path d="M52.09,18.52c-1.58,0-2.86,1.28-2.86,2.86s1.28,2.86,2.86,2.86,2.86-1.28,2.86-2.86-1.28-2.86-2.86-2.86ZM52.09,22.71c-.73,0-1.33-.6-1.33-1.33s.6-1.33,1.33-1.33,1.33.6,1.33,1.33-.6,1.33-1.33,1.33Z" style="fill:#fff; stroke-width:0px;"/><path d="M52.09,18.52c-1.58,0-2.86,1.28-2.86,2.86s1.28,2.86,2.86,2.86,2.86-1.28,2.86-2.86-1.28-2.86-2.86-2.86ZM52.09,22.71c-.73,0-1.33-.6-1.33-1.33s.6-1.33,1.33-1.33,1.33.6,1.33,1.33-.6,1.33-1.33,1.33Z" style="fill:#fff; stroke-width:0px;"/><path d="M30.42,18.52c-.41,0-.79.08-1.14.24,0,.05.01.11.01.16,0,.13.02.24.04.36.02.28.06.55.11.83.02.11.03.21.06.31.24-.23.56-.37.92-.37.73,0,1.32.6,1.32,1.33s-.59,1.33-1.32,1.33c-.11,0-.22-.01-.32-.05.02.07.04.13.07.2.13.36.28.7.44,1.04.05.1.1.22.16.32,1.41-.18,2.5-1.38,2.5-2.84,0-1.58-1.28-2.86-2.85-2.86Z" style="fill:#fff; stroke-width:0px;"/><path d="M36.59,18.55c-1.57,0-2.85,1.27-2.85,2.85s1.28,2.86,2.85,2.86,2.86-1.28,2.86-2.86-1.28-2.85-2.86-2.85ZM36.59,22.73c-.73,0-1.32-.59-1.32-1.33s.59-1.33,1.32-1.33,1.33.6,1.33,1.33-.59,1.33-1.33,1.33Z" style="fill:#fff; stroke-width:0px;"/></g></g></g></svg>