<?xml version="1.0" encoding="UTF-8"?><svg id="_Слой_2" xmlns="http://www.w3.org/2000/svg" width="144" height="32" viewBox="0 0 144 32"><g id="_Слой_1-2"><g id="logofooter"><g id="sonic"><path d="M23.43,15.06c-.91-.7-1.85-1.3-2.81-1.78-.96-.49-2.13-.97-3.54-1.46-1.49-.54-2.55-1-3.16-1.36-.62-.38-.93-.79-.93-1.25,0-.83.76-1.24,2.28-1.24,3.29,0,6.53,1.56,9.74,4.67l3.46-7.85c-1.49-1.62-3.47-2.83-5.95-3.62-2.47-.78-4.93-1.17-7.38-1.17-3.74,0-6.7.96-8.88,2.89-2.18,1.92-3.27,4.68-3.27,8.25,0,.97.17,1.85.51,2.65.34.81.72,1.45,1.14,1.95s1.04,1,1.88,1.48c.82.49,1.5.84,2.04,1.07.53.23,1.3.55,2.32.95,2.08.76,3.47,1.36,4.17,1.79.71.43,1.06.89,1.06,1.38,0,.91-.9,1.37-2.7,1.37-2,0-3.94-.48-5.84-1.44-1.9-.96-3.49-2.27-4.79-3.92L0,27.38c3.34,3.08,7.78,4.62,13.33,4.62,4.53,0,7.8-.96,9.82-2.87,2.03-1.92,3.04-4.67,3.04-8.27,0-1.22-.23-2.33-.69-3.3-.47-.96-1.16-1.8-2.07-2.5Z" style="fill:#fff; stroke-width:0px;"/><path d="M57.93,3.98c-2.99-2.65-6.82-3.98-11.49-3.98-5.15,0-9.3,1.64-12.46,4.93-.69.71-1.3,1.46-1.83,2.25-.01.02-.03.04-.04.06-.12.18-.23.35-.33.53-1.71,2.75-2.55,5.98-2.55,9.71h0c0,.24,0,.47.02.69v.06c0,.05.01.1.01.15.01.19.02.37.03.54,0,.13.02.24.04.36.01.18.03.35.06.53.01.1.03.2.05.3.02.13.04.26.07.38.11.58.25,1.15.43,1.69.06.23.14.46.23.68.11.3.23.58.36.86.02.06.05.12.08.18.07.13.13.28.2.41.06.1.12.21.18.32.71,1.22,1.62,2.34,2.74,3.35,2.99,2.68,6.8,4.02,11.44,4.02,5.21,0,9.38-1.64,12.53-4.95,3.15-3.29,4.73-7.48,4.73-12.57,0-4.34-1.5-7.84-4.5-10.5Z" style="fill:#fff; stroke-width:0px;"/><path d="M88.16.72l-2.79,14.27h-.75s-7.45-14.27-7.45-14.27h-8.37l-5.87,30.55h9.57l2.7-14.31h.75l7,14.31h8.88L97.73.72h-9.57Z" style="fill:#fff; stroke-width:0px;"/><path d="M102.2.72l-5.81,30.55h9.91L112.11.72h-9.91Z" style="fill:#fff; stroke-width:0px;"/><path d="M132.22,22.45c-.94.48-1.94.72-2.98.72-1.8,0-3.28-.52-4.43-1.56-1.15-1.04-1.73-2.51-1.73-4.39,0-2.43.62-4.42,1.88-5.98,1.25-1.55,3-2.34,5.25-2.34,1.3,0,2.46.34,3.51.99,1.03.67,1.82,1.5,2.36,2.53l7.92-5.66c-1.32-2.28-3.24-3.98-5.77-5.09-2.54-1.12-5.31-1.67-8.31-1.67-5.15,0-9.26,1.66-12.32,4.99-3.07,3.32-4.6,7.65-4.6,12.96,0,4.4,1.44,7.84,4.33,10.32,2.88,2.48,6.72,3.73,11.53,3.73s8.92-1.65,12.03-4.97l-6.42-6.51c-.56.8-1.32,1.44-2.25,1.93Z" style="fill:#fff; stroke-width:0px;"/></g><g id="car"><path d="M40.64,7.75v9.22c0,.28-.22.51-.5.51h-10.91c0-3.73.84-6.96,2.55-9.71.1-.18.21-.35.33-.53h8.03c.28,0,.5.23.5.51Z" style="fill:#026aa2; stroke-width:0px;"/><path d="M55.5,15.36c-1.29-.11-3.84-.32-5.07-.42-.39-.04-.69-.37-.69-.76v-2.35c0-.37-.31-.67-.68-.67h-.51c-.32.01-.62-.18-.76-.47-.47-1.02-1.88-3.33-4.93-3.45h-.79c-.4,0-.73.33-.73.73v10.05h-2.86s-.09.04-.09.08v.03s.01.05.03.07c.4.49,1.14.65,1.45,2.67h8.5s.07-3.39,3.74-3.39c2.85,0,3.2,3.23,3.2,3.23,0,0,.8.57.89-.25.07-.61.11-3.26.11-4.53,0-.45-.35-.53-.81-.57ZM48.96,14.82h-2.61s-.17-.67-.17-1.45.17-1.22.17-1.22h2.61v2.67Z" style="fill:#026aa2; stroke-width:0px;"/><path d="M51.84,18.02c-1.57,0-2.85,1.28-2.85,2.86s1.28,2.86,2.85,2.86,2.86-1.28,2.86-2.86-1.28-2.86-2.86-2.86ZM51.84,22.21c-.73,0-1.32-.6-1.32-1.33s.59-1.33,1.32-1.33,1.33.6,1.33,1.33-.59,1.33-1.33,1.33Z" style="fill:#026aa2; stroke-width:0px;"/><path d="M51.84,18.02c-1.57,0-2.85,1.28-2.85,2.86s1.28,2.86,2.85,2.86,2.86-1.28,2.86-2.86-1.28-2.86-2.86-2.86ZM51.84,22.21c-.73,0-1.32-.6-1.32-1.33s.59-1.33,1.32-1.33,1.33.6,1.33,1.33-.59,1.33-1.33,1.33Z" style="fill:#026aa2; stroke-width:0px;"/><path d="M51.84,18.02c-1.57,0-2.85,1.28-2.85,2.86s1.28,2.86,2.85,2.86,2.86-1.28,2.86-2.86-1.28-2.86-2.86-2.86ZM51.84,22.21c-.73,0-1.32-.6-1.32-1.33s.59-1.33,1.32-1.33,1.33.6,1.33,1.33-.59,1.33-1.33,1.33Z" style="fill:#026aa2; stroke-width:0px;"/><path d="M30.17,18.02c-.32,0-.63.05-.92.15v.06c0,.05.01.1.01.15.01.19.02.37.03.54,0,.13.02.24.04.36.01.18.03.35.06.53.22-.16.49-.26.78-.26.73,0,1.33.6,1.33,1.33s-.6,1.33-1.33,1.33c-.08,0-.15-.01-.23-.03.06.23.14.46.23.68.11.3.23.58.36.86,1.41-.18,2.5-1.38,2.5-2.84,0-1.58-1.28-2.86-2.86-2.86Z" style="fill:#026aa2; stroke-width:0px;"/><path d="M36.35,18.04c-1.58,0-2.86,1.28-2.86,2.86s1.28,2.86,2.86,2.86,2.86-1.28,2.86-2.86-1.28-2.86-2.86-2.86ZM36.35,22.23c-.74,0-1.33-.6-1.33-1.33s.59-1.33,1.33-1.33,1.33.6,1.33,1.33-.6,1.33-1.33,1.33Z" style="fill:#026aa2; stroke-width:0px;"/></g></g></g></svg>