<?xml version="1.0" encoding="UTF-8"?><svg id="_Слой_2" xmlns="http://www.w3.org/2000/svg" width="35" height="35" viewBox="0 0 35 35"><g id="_Слой_1-2"><path d="M32.37,0H2.63C1.18,0,0,1.18,0,2.63v29.73c0,1.45,1.18,2.63,2.63,2.63h29.73c1.45,0,2.63-1.18,2.63-2.63V2.63c0-1.45-1.18-2.63-2.63-2.63ZM32.38,29.72c0,1.46-1.19,2.65-2.65,2.65H5.28c-1.46,0-2.65-1.19-2.65-2.65V5.28c0-1.46,1.19-2.65,2.65-2.65h24.45c1.46,0,2.65,1.19,2.65,2.65v24.45Z" style="fill:#12a8dd; stroke-width:0px;"/><rect x="4.5" y="4.5" width="26" height="26" rx="3" ry="3" style="fill:#12a8dd; stroke-width:0px;"/><path d="M15.63,11.24l-7.72,10.1c-.99,1.3-.07,3.18,1.57,3.18h16.04c1.67,0,2.59-1.94,1.53-3.23l-8.11-10.07c-.81-.98-2.53-.98-3.31.03Z" style="fill:#fff; stroke-width:0px;"/></g></svg>