<?xml version="1.0" encoding="UTF-8"?><svg id="_Слой_2" xmlns="http://www.w3.org/2000/svg" width="82.76" height="27.25" viewBox="0 0 82.76 27.25"><defs><style>.cls-1{fill:#737680;stroke-width:0px;}</style></defs><g id="_Слой_1-2"><g id="rotates"><path class="cls-1" d="M12.37,3.97V0H0v27.25h12.37v-3.97c-2.53,0-4.96-1.02-6.76-2.83-1.79-1.81-2.8-4.27-2.8-6.83s1.01-5.02,2.8-6.83c1.79-1.81,4.22-2.83,6.76-2.83Z"/><path class="cls-1" d="M12.37,3.97v19.32c2.53,0,4.96-1.02,6.76-2.83,1.79-1.81,2.8-4.27,2.8-6.83s-1.01-5.02-2.8-6.83c-1.79-1.81-4.22-2.83-6.76-2.83Z"/><path class="cls-1" d="M81.26,10.03c.83,0,1.5-.67,1.5-1.5s-.67-1.5-1.5-1.5-1.5.67-1.5,1.5.67,1.5,1.5,1.5Z"/><path class="cls-1" d="M33.59,17.88l-2.11-3.65h-1.58v3.65h-2.07V7.38h4.2c.97,0,1.79.34,2.48,1.02s1.02,1.5,1.02,2.46c0,.65-.19,1.25-.55,1.81-.37.55-.86.97-1.47,1.25l2.33,3.96h-2.24ZM29.9,9.32v3.1h2.13c.39,0,.73-.15,1.01-.46.28-.31.42-.67.42-1.1s-.14-.79-.42-1.1c-.28-.3-.62-.45-1.01-.45h-2.13Z"/><path class="cls-1" d="M42.96,16.95c-.77.76-1.71,1.15-2.82,1.15s-2.05-.38-2.81-1.15c-.77-.77-1.15-1.7-1.15-2.81s.38-2.05,1.15-2.81,1.7-1.15,2.81-1.15,2.05.38,2.82,1.15,1.16,1.7,1.16,2.81-.39,2.05-1.16,2.81ZM38.69,15.62c.39.39.87.58,1.45.58s1.06-.19,1.46-.58c.39-.39.58-.88.58-1.48s-.2-1.1-.58-1.48-.88-.58-1.46-.58-1.06.19-1.45.58c-.38.39-.58.88-.58,1.48s.19,1.09.58,1.48Z"/><path class="cls-1" d="M49.61,12.24h-1.69v3.12c0,.26.06.45.19.57s.32.19.57.2c.25.02.56.01.93,0v1.75c-1.33.15-2.27.02-2.81-.38-.54-.4-.82-1.12-.82-2.15v-3.12h-1.3v-1.86h1.3v-1.52l1.94-.58v2.1h1.69v1.86Z"/><path class="cls-1" d="M56.45,10.38h1.93v7.5h-1.93v-.88c-.58.73-1.39,1.09-2.45,1.09s-1.86-.38-2.57-1.15c-.71-.77-1.07-1.7-1.07-2.81s.36-2.05,1.07-2.81,1.57-1.15,2.57-1.15c1.05,0,1.87.37,2.45,1.09v-.88ZM52.88,15.66c.39.39.89.59,1.49.59s1.1-.2,1.49-.59.59-.9.59-1.52-.2-1.13-.59-1.52c-.39-.4-.89-.59-1.49-.59s-1.09.2-1.49.59c-.39.4-.58.9-.58,1.52s.2,1.13.58,1.52Z"/><path class="cls-1" d="M64.43,12.24h-1.69v3.12c0,.26.06.45.19.57s.32.19.57.2c.25.02.56.01.93,0v1.75c-1.33.15-2.27.02-2.81-.38-.54-.4-.82-1.12-.82-2.15v-3.12h-1.3v-1.86h1.3v-1.52l1.94-.58v2.1h1.69v1.86Z"/><path class="cls-1" d="M67.2,14.93c.26.94.97,1.41,2.12,1.41.74,0,1.3-.25,1.68-.75l1.56.9c-.74,1.07-1.83,1.61-3.27,1.61-1.24,0-2.24-.38-2.99-1.12s-1.12-1.7-1.12-2.83.37-2.07,1.11-2.83c.74-.75,1.69-1.13,2.85-1.13,1.1,0,2.01.38,2.72,1.14.71.76,1.07,1.7,1.07,2.82,0,.25-.03.51-.08.79h-5.66ZM67.17,13.43h3.83c-.11-.51-.34-.89-.68-1.14-.35-.25-.74-.38-1.18-.38-.52,0-.95.13-1.29.4-.34.26-.57.64-.67,1.12Z"/><path class="cls-1" d="M75.77,12.51c0,.2.13.36.4.49s.59.23.97.33c.38.1.76.22,1.14.36s.7.39.97.73c.26.34.4.76.4,1.27,0,.77-.29,1.36-.86,1.78-.58.42-1.29.62-2.15.62-1.54,0-2.59-.59-3.15-1.79l1.68-.95c.22.65.71.98,1.47.98.69,0,1.03-.21,1.03-.65,0-.2-.13-.36-.4-.49-.26-.12-.59-.24-.97-.34-.38-.1-.76-.22-1.14-.37s-.7-.39-.97-.71c-.27-.32-.4-.73-.4-1.22,0-.74.27-1.32.82-1.75.54-.43,1.22-.64,2.03-.64.61,0,1.17.14,1.67.41s.89.67,1.18,1.18l-1.65.9c-.24-.51-.64-.76-1.2-.76-.25,0-.46.06-.62.17-.17.11-.25.26-.25.45Z"/></g></g></svg>